<svg
  display="block"
  role="presentation"
  viewBox="0 0 40 26"
  xmlns="http://www.w3.org/2000/svg"
>
  <path
    d="M 19.978 16.084 L 14.758 24.338 L 6.103 10.21 L 6.083 25 L 0 25 L 0 0 L 6.152 0 L 14.897 14.809 L 14.905 8.106 Z M 20.98 6.426 C 21.02 6.346 20.98 0.082 20.993 0 L 14.91 0 C 14.913 0.099 14.902 6.33 14.905 6.426 Z M 30.37 13.357 C 28.915 13.329 27.6 14.226 27.088 15.596 C 27.94 14.314 29.564 13.799 30.993 14.358 C 31.653 14.627 32.521 15.065 33.21 14.832 C 32.555 13.909 31.497 13.36 30.37 13.357 Z M 36.02 15.135 C 35.395 14.918 34.686 14.671 34.171 13.994 C 34.071 13.86 33.978 13.709 33.878 13.549 C 33.655 13.136 33.353 12.77 32.99 12.473 C 32.5 12.111 31.856 11.933 31.023 11.933 C 29.348 11.934 27.838 12.951 27.2 14.508 C 28.005 13.38 29.347 12.769 30.721 12.903 C 32.095 13.037 33.295 13.896 33.87 15.159 C 34.159 15.636 34.727 15.865 35.263 15.719 C 36.085 15.543 36.03 16.322 37.268 16.587 L 37.268 16.364 C 37.263 15.617 36.858 15.442 36.018 15.135 Z M 39.393 17.258 C 39.763 17.032 39.984 16.623 39.971 16.188 C 39.955 11.231 35.955 6.989 31.021 6.989 C 28.009 6.987 25.198 8.511 23.543 11.043 C 23.527 11 21.007 7.036 20.98 6.989 L 14.905 6.989 L 20.677 16.081 L 15.045 25 L 20.945 25 L 23.512 21.033 L 26.125 25 L 32.026 25 L 26.677 16.53 C 26.588 16.365 26.54 16.181 26.537 15.994 C 26.536 14.797 27.008 13.65 27.849 12.804 C 28.69 11.958 29.83 11.482 31.02 11.482 L 31.021 11.482 C 33.501 11.482 33.915 12.974 34.45 13.675 C 35.506 15.06 37.616 14.453 37.616 16.259 C 37.624 16.68 37.854 17.066 38.22 17.271 C 38.585 17.477 39.032 17.472 39.393 17.258 Z M 39.976 17.481 C 39.688 18.105 39.043 18.048 38.718 18.552 C 38.425 19.007 38.908 19.243 38.908 19.243 C 38.908 19.243 39.47 19.504 39.805 18.721 C 39.978 18.334 40.038 17.903 39.976 17.481 Z"
    fill="var(--27n4wr, var(--token-aef2a5f5-2b18-4c04-8d6c-5c94ff192781, rgb(24, 24, 27)))"
    height="25px"
    id="jNpRcEc_W"
    transform="translate(0 0.575)"
    width="40.00000038808251px"
  />
</svg>
